<svg width="17" height="30" viewBox="0 0 17 30" fill="none" xmlns="http://www.w3.org/2000/svg">
<path d="M12.84 29.2654L0.717181 16.7757C0.489932 16.5435 0.309556 16.2672 0.186464 15.9628C0.0633729 15.6584 1.28233e-06 15.3319 1.31116e-06 15.0021C1.33998e-06 14.6724 0.063373 14.3459 0.186464 14.0415C0.309556 13.7371 0.489933 13.4608 0.717182 13.2286L12.84 0.738889C13.0653 0.504762 13.3335 0.318926 13.629 0.192108C13.9244 0.0652902 14.2413 1.66618e-06 14.5614 1.69416e-06C14.8815 1.72214e-06 15.1984 0.0652903 15.4938 0.192108C15.7893 0.318926 16.0574 0.504763 16.2828 0.73889C16.5101 0.971107 16.6904 1.24738 16.8135 1.55178C16.9366 1.85617 17 2.18267 17 2.51243C17 2.84218 16.9366 3.16868 16.8135 3.47308C16.6904 3.77747 16.5101 4.05375 16.2828 4.28596L5.85724 15.0021L16.2828 25.7183C16.7394 26.1887 16.9959 26.8266 16.9959 27.4918C16.9959 27.8212 16.9329 28.1474 16.8105 28.4517C16.6882 28.756 16.5089 29.0325 16.2828 29.2654C15.8263 29.7357 15.207 30 14.5614 30C14.2417 30 13.9251 29.9351 13.6298 29.8091C13.3344 29.683 13.066 29.4983 12.84 29.2654Z" fill="white"/>
</svg>
